<!--?xml version="1.0" standalone="no"?-->
              <svg id="sw-js-blob-svg" viewBox="0 0 100 100" xmlns="http://www.w3.org/2000/svg" version="1.1">
                    <defs> 
                        <linearGradient id="sw-gradient" x1="0" x2="1" y1="1" y2="0">
                            <stop id="stop1" stop-color="rgba(248, 117, 55, 1)" offset="0%"></stop>
                            <stop id="stop2" stop-color="rgba(251, 168, 31, 1)" offset="100%"></stop>
                        </linearGradient>
                    </defs>
                <path fill="none" d="M23.3,-32.6C27,-29.3,24.6,-18.3,26,-9.5C27.3,-0.8,32.3,5.7,30.6,9.6C28.8,13.5,20.4,15,14.1,16C7.9,17,4,17.6,-1.1,19.1C-6.2,20.6,-12.3,23,-17.3,21.6C-22.3,20.2,-26,14.9,-27.4,9.3C-28.7,3.6,-27.6,-2.5,-25,-7.4C-22.5,-12.4,-18.5,-16.2,-14.1,-19.2C-9.7,-22.2,-4.8,-24.4,2.5,-27.8C9.8,-31.2,19.6,-35.8,23.3,-32.6Z" width="100%" height="100%" transform="translate(50 50)" stroke-width="1" style="transition: all 0.3s ease 0s;" stroke="url(#sw-gradient)"></path>
              </svg>