<svg xmlns="http://www.w3.org/2000/svg" viewBox="0 0 119.01 40"><defs><style>.cls-1{fill:#0d1835;}</style></defs><g id="Layer_2" data-name="Layer 2"><g id="Layer_1-2" data-name="Layer 1"><path class="cls-1" d="M20.12,0H9.69V9.59H20.12Z"/><path class="cls-1" d="M9.69,23.77H0V40H9.69Z"/><path class="cls-1" d="M9.69,9.59H0v5.19H9.69Z"/><path class="cls-1" d="M20.12,14.78H9.69v9H20.12Z"/><path class="cls-1" d="M36.87,9.59H53.72v2.83H39.89v7.65H50.73v2.82H39.89v10h-3Z"/><path class="cls-1" d="M55.63,9.59h2.84V32.88H55.63Z"/><path class="cls-1" d="M61.11,24.72c0-5.41,3.1-8.78,7.33-8.78,4.82,0,7.8,4.06,7.17,9.45H63.92c.16,4.15,2.48,5.48,4.79,5.48a4.7,4.7,0,0,0,4.42-3.19l2.61.9a7.1,7.1,0,0,1-7.12,4.77C64.08,33.35,61.11,30.31,61.11,24.72ZM72.69,23c0-3.12-2-4.75-4.26-4.75S64.21,20,64,23Z"/><path class="cls-1" d="M81.52,24.46l-5.35-8h3.32l1.81,2.82c1.23,1.95,1.6,2.55,2,3.22.46-.67.87-1.27,2.14-3.22l1.81-2.82H90.4L85,24.48l5.76,8.39H87.32l-2.07-3.13c-1.23-1.86-1.61-2.42-2.08-3.17l-2.11,3.17-2.12,3.13H75.83Z"/><path class="cls-1" d="M92.37,9.59h3v3.6h-3Zm.11,6.82h2.84V32.87H92.48Z"/><path class="cls-1" d="M98.89,9.59h2.84V32.88H98.89Z"/><path class="cls-1" d="M104.37,24.72c0-5.41,3.1-8.78,7.33-8.78,4.82,0,7.8,4.06,7.17,9.45H107.19c.16,4.15,2.48,5.48,4.79,5.48a4.69,4.69,0,0,0,4.42-3.19l2.61.9a7.1,7.1,0,0,1-7.12,4.77C107.35,33.35,104.37,30.31,104.37,24.72ZM116,23c0-3.12-2-4.75-4.26-4.75S107.47,20,107.25,23Z"/></g></g></svg>