<svg width="120" height="40" viewBox="0 0 120 40" fill="none" xmlns="http://www.w3.org/2000/svg">
<path d="M20.1233 0H9.69336V9.59415H20.1233V0Z" fill="white"/>
<path d="M9.69352 23.7656H0V39.9998H9.69352V23.7656Z" fill="white"/>
<path d="M9.69352 9.59424H0V14.7839H9.69352V9.59424Z" fill="white"/>
<path d="M20.1233 14.7837H9.69336V23.779H20.1233V14.7837Z" fill="white"/>
<path d="M36.873 9.59424H53.7162V12.4153H39.8855V20.0666H50.7305V22.8877H39.8855V32.8677H36.873V9.59424Z" fill="white"/>
<path d="M55.6309 9.59424H58.4693V32.881H55.6309V9.59424Z" fill="white"/>
<path d="M61.1069 24.7238C61.1069 19.308 64.2131 15.9414 68.444 15.9414C73.264 15.9414 76.2363 20 75.607 25.3892H63.9186C64.0793 29.5409 66.3955 30.8715 68.7118 30.8715C71.5235 30.8715 72.7017 28.7425 73.1301 27.6779L75.7409 28.5828C74.5092 31.9361 71.7243 33.3466 68.6181 33.3466C64.0793 33.3466 61.1069 30.3127 61.1069 24.7238ZM72.6883 23.0339C72.6883 19.9068 70.7067 18.2834 68.4306 18.2834C66.2482 18.2834 64.2131 20.0399 63.9721 23.0339H72.6883Z" fill="white"/>
<path d="M81.5247 24.4578L76.1692 16.4072H79.4896L81.2971 19.2283C82.5289 21.1843 82.9038 21.7831 83.3054 22.4485C83.7741 21.7831 84.1757 21.1843 85.4477 19.2283L87.2552 16.4072H90.4015L84.979 24.4844L90.7362 32.8676H87.3221L85.2468 29.7406C84.0151 27.8776 83.6402 27.3187 83.1716 26.5736L81.0561 29.7406L78.9407 32.8676H75.8345L81.5247 24.4578Z" fill="white"/>
<path d="M92.3696 9.59424H95.3821V13.1871H92.3696V9.59424ZM92.4767 16.4073H95.3152V32.8677H92.4767V16.4073Z" fill="white"/>
<path d="M98.8901 9.59424H101.729V32.881H98.8901V9.59424Z" fill="white"/>
<path d="M104.366 24.7238C104.366 19.308 107.472 15.9414 111.703 15.9414C116.523 15.9414 119.496 20 118.866 25.3892H107.191C107.352 29.5409 109.668 30.8715 111.984 30.8715C114.796 30.8715 115.974 28.7425 116.403 27.6779L119.014 28.5828C117.782 31.9361 114.997 33.3466 111.891 33.3466C107.352 33.3466 104.366 30.3127 104.366 24.7238ZM115.948 23.0339C115.948 19.9068 113.966 18.2834 111.69 18.2834C109.521 18.2834 107.472 20.0399 107.245 23.0339H115.948Z" fill="white"/>
</svg>
