<svg xmlns="http://www.w3.org/2000/svg" xmlns:xlink="http://www.w3.org/1999/xlink" viewBox="0 0 197.93 229.42"><defs><style>.cls-1{fill:none;}.cls-2{opacity:0.1;}.cls-3{fill:#d84848;}.cls-4{clip-path:url(#clip-path);}.cls-5{fill:#723021;}.cls-6{fill:#ffb899;}.cls-7{fill:#efa084;}.cls-8{fill:#f77b59;}.cls-9{fill:#fff;}.cls-10{fill:#161114;}.cls-11{clip-path:url(#clip-path-2);}</style><clipPath id="clip-path"><path class="cls-1" d="M0,95.08Q.95,54.43,28.88,26.54A88,88,0,0,1,73.53,2.33a102.44,102.44,0,0,1,51.8,2.18,104.22,104.22,0,0,1,44.36,26.36Q197,58.17,197.9,95.08t-29.46,67.3q-29.77,29.77-70.09,31T28.87,165.49Q-.91,135.71,0,95.08Z"/></clipPath><clipPath id="clip-path-2"><path class="cls-1" d="M141.91,143.61c-4-1.89-8.77-4.49-14.4-5.37,0,0-5.52,17.06-30.49,17.2-25-.14-30.49-17.2-30.49-17.2-6.21.86-11.41,3.53-15.74,5.55,2.14,7.2,6.05,24.76-.84,50.13l46.78.35h.58l45.39-.35C135.75,168.34,139.78,150.67,141.91,143.61Z"/></clipPath></defs><g id="Layer_2" data-name="Layer 2"><g id="OBJECTS"><g class="cls-2"><path class="cls-3" d="M0,95.08Q.95,54.43,28.88,26.54A88,88,0,0,1,73.53,2.33a102.44,102.44,0,0,1,51.8,2.18,104.22,104.22,0,0,1,44.36,26.36Q197,58.17,197.9,95.08t-29.46,67.3q-29.77,29.77-70.09,31T28.87,165.49Q-.91,135.71,0,95.08Z"/></g><g class="cls-4"><path class="cls-5" d="M51.65,60S49,92.74,33.79,110.19c-16.91,19.44-8.72,51.19,19.72,50.05a244.67,244.67,0,0,1,42.09,1.9L123.29,26.38S92.57,8.56,66.41,30.55Z"/><path class="cls-5" d="M71.37,32.2c-2.62,4.82-5.33,9.59-8,14.38s-5.44,9.53-8.15,14.3l.1-.28c-.4,2.59-.89,5.12-1.45,7.65-.28,1.27-.59,2.52-.89,3.78s-.66,2.51-1,3.75-.74,2.49-1.13,3.72l-1.24,3.69-1.37,3.65c-.48,1.21-1,2.4-1.52,3.6S45.58,92.79,45,94s-1.19,2.32-1.82,3.46l-1,1.72c-.33.56-.7,1.1-1,1.66-.73,1.09-1.36,2.24-2.19,3.26s-1.56,2.12-2.43,3.1L34,110.07a36.59,36.59,0,0,0-4.73,5.83,33.1,33.1,0,0,0-3.4,6.65A33.49,33.49,0,0,0,24,129.79a31.72,31.72,0,0,0-.18,7.48,28,28,0,0,0,1.72,7.27,24.3,24.3,0,0,0,9.29,11.54,25.76,25.76,0,0,0,6.89,3.2,37.68,37.68,0,0,0,7.56,1.35,33.84,33.84,0,0,1-7.69-.87,26.48,26.48,0,0,1-7.23-2.91,23.71,23.71,0,0,1-6-5,25.83,25.83,0,0,1-4.15-6.72A30.44,30.44,0,0,1,22,129.54a35.57,35.57,0,0,1,5.36-14.83,39.37,39.37,0,0,1,4.95-6.17l2.54-2.82c.83-.94,1.54-2,2.31-3s1.42-2.08,2.12-3.13c.34-.54.7-1.06,1-1.6l.92-1.66c.62-1.11,1.26-2.2,1.8-3.36s1.15-2.26,1.64-3.44L46.2,86l1.4-3.56,1.28-3.61c.41-1.21.78-2.43,1.17-3.65a141.6,141.6,0,0,0,3.73-14.86l0-.16.07-.11c2.89-4.66,5.73-9.36,8.67-14S68.38,36.8,71.37,32.2Z"/><path class="cls-5" d="M143.27,60s2.68,32.77,17.85,50.22c16.91,19.44,8.72,51.19-19.72,50.05a244.67,244.67,0,0,0-42.09,1.9L71.63,26.38s30.71-17.82,56.88,4.17Z"/><path class="cls-5" d="M123.55,32.2c3,4.6,5.88,9.26,8.81,13.9s5.78,9.33,8.67,14l.07.11,0,.16a141.65,141.65,0,0,0,3.74,14.86c.39,1.22.76,2.44,1.17,3.65l1.28,3.61L148.71,86l1.52,3.5c.49,1.18,1.1,2.29,1.64,3.44s1.17,2.25,1.79,3.36l.93,1.66c.32.54.68,1.06,1,1.6.7,1.05,1.33,2.15,2.12,3.13s1.48,2,2.31,3l2.55,2.82a39.31,39.31,0,0,1,4.94,6.17,35.29,35.29,0,0,1,5.36,14.83,30.33,30.33,0,0,1-2.1,15.56,25.86,25.86,0,0,1-4.16,6.72,23.67,23.67,0,0,1-6,5,26.61,26.61,0,0,1-7.23,2.91,33.91,33.91,0,0,1-7.69.87,37.8,37.8,0,0,0,7.56-1.35,25.84,25.84,0,0,0,6.88-3.2,24.15,24.15,0,0,0,9.29-11.54,27.63,27.63,0,0,0,1.73-7.27,31.72,31.72,0,0,0-.19-7.48,33.65,33.65,0,0,0-5.25-13.89,37.15,37.15,0,0,0-4.73-5.83l-2.65-2.9c-.87-1-1.61-2.07-2.42-3.1s-1.47-2.17-2.2-3.26c-.34-.56-.71-1.1-1-1.66l-.95-1.72c-.63-1.14-1.28-2.27-1.82-3.46s-1.17-2.33-1.67-3.53-1-2.39-1.52-3.6l-1.36-3.65L144.1,79.5c-.4-1.23-.75-2.48-1.13-3.72s-.69-2.5-1-3.75-.61-2.51-.89-3.78c-.56-2.53-1.05-5.06-1.44-7.65l.1.28c-2.72-4.77-5.49-9.5-8.16-14.3S126.17,37,123.55,32.2Z"/><path class="cls-6" d="M116.4,134.49c-6.6-5.41-.48-36.37-.48-36.37H78.52s6.13,31-.47,36.37-49.94,4.75-46,59.22H159.28C164.19,139.1,123,139.9,116.4,134.49Z"/><path class="cls-7" d="M114.49,131.4c-3.27-9.54,1.43-33.28,1.43-33.28H78.52s2.53,12.76,2.59,23.34C90.52,128.57,102.35,131.38,114.49,131.4Z"/><path class="cls-7" d="M55.69,85.88c1.83,6.71,7,12.66,11,11.55s5.48-8.86,3.65-15.57S64.16,72,60.1,73.13,53.85,79.17,55.69,85.88Z"/><path class="cls-7" d="M138.35,85.88c-1.83,6.71-7,12.66-11,11.55s-5.48-8.86-3.65-15.57,6.23-9.84,10.29-8.73S140.19,79.17,138.35,85.88Z"/><path class="cls-6" d="M63.36,73.85c0,24.57,15.18,49.64,33.91,49.64s33.92-25.07,33.92-49.64S116,34.53,97.27,34.53,63.36,49.28,63.36,73.85Z"/><path class="cls-5" d="M141.49,50.65c-5.69-23.89-37.17-39.82-47.4-17.82,0,0-5.58,32.76,31.09,45.5.07,5.52,1,13.67,3.42,14.41l2.06-10.29.21,0L132,75.68l.45-2.27a6.86,6.86,0,0,1,6.37,7.2S146.57,72,141.49,50.65Z"/><path class="cls-5" d="M53.16,50.65c5.69-23.89,36-39.82,46.26-17.82,0,0,4.41,33.52-32.26,46.26-.06,5.51.18,12.91-2.25,13.65l-2-10.29-.22,0L61.5,75.68l-.45-2.27a6.86,6.86,0,0,0-6.37,7.2S48.08,72,53.16,50.65Z"/><path class="cls-5" d="M69.06,80.23c.86-.31,1.7-.68,2.53-1.06s1.65-.77,2.46-1.19a44.64,44.64,0,0,0,4.67-2.79c.75-.5,1.5-1,2.21-1.56s1.43-1.11,2.1-1.7,1.35-1.19,2-1.81,1.26-1.26,1.85-1.94a33.21,33.21,0,0,0,5.74-8.91c.36-.81.67-1.64,1-2.47s.55-1.68.74-2.54.39-1.73.55-2.6.22-1.76.35-2.63l1.35-9,.91,9c.08.79.23,1.67.4,2.5s.37,1.69.59,2.52A47.17,47.17,0,0,0,100.13,59c.32.8.66,1.59,1,2.37s.77,1.54,1.21,2.29.89,1.47,1.36,2.2l.73,1.06.78,1c.54.67,1.08,1.35,1.69,2s1.21,1.22,1.83,1.83,1.29,1.15,2,1.66,1.41,1,2.13,1.5,1.48.93,2.25,1.33a23.52,23.52,0,0,0,2.38,1.13c.8.38,1.64.65,2.46,1s1.69.53,2.54.8c-.87-.16-1.76-.27-2.63-.48s-1.74-.42-2.58-.72a26.44,26.44,0,0,1-2.53-.92c-.83-.34-1.64-.74-2.45-1.15a26,26,0,0,1-2.32-1.4c-.77-.48-1.48-1-2.21-1.59s-1.4-1.17-2-1.81-1.27-1.31-1.87-2L103,68l-.83-1.09c-.54-.74-1-1.49-1.52-2.27s-.92-1.57-1.34-2.38-.81-1.63-1.17-2.47a38.72,38.72,0,0,1-1.82-5.14c-.24-.88-.46-1.76-.65-2.66s-.35-1.77-.46-2.74h2.26c-.12.94-.21,1.88-.39,2.8s-.35,1.86-.61,2.77-.53,1.82-.83,2.72S95,59.3,94.59,60.15a32.88,32.88,0,0,1-6.41,9.25c-.65.68-1.34,1.31-2,1.94S84.73,72.55,84,73.1s-1.51,1.1-2.29,1.6-1.57,1-2.38,1.45a47.67,47.67,0,0,1-5,2.39A32.76,32.76,0,0,1,69.06,80.23Z"/><path class="cls-8" d="M56.46,83a11.52,11.52,0,0,1,.07-2.62,6.31,6.31,0,0,1,.31-1.32,2.67,2.67,0,0,1,.86-1.28,1.46,1.46,0,0,1,.94-.26,1.85,1.85,0,0,1,.84.26,2.64,2.64,0,0,1,.36.23,1.6,1.6,0,0,1,.26.22,5.27,5.27,0,0,1,.52.6,10.41,10.41,0,0,1,1.17,2.49,28.87,28.87,0,0,1,1.15,5.14,47.34,47.34,0,0,1,.41,5.19V92l-.23.14a4,4,0,0,0-.61.49,2.9,2.9,0,0,0-.49.58,1,1,0,0,0,.09,1.24,3.89,3.89,0,0,0,1.37.92,14.76,14.76,0,0,0,1.65.62,11,11,0,0,1-1.77-.31,3.93,3.93,0,0,1-1.68-.82,1.66,1.66,0,0,1-.55-.92,1.9,1.9,0,0,1,.16-1.09,3.88,3.88,0,0,1,.55-.85,5.17,5.17,0,0,1,.71-.69l-.22.45c-.23-1.68-.51-3.37-.8-5-.15-.84-.31-1.67-.49-2.49s-.37-1.65-.61-2.44a10.2,10.2,0,0,0-.89-2.22c-.1-.16-.2-.3-.28-.41a2,2,0,0,0-.21-.22,1,1,0,0,0-.17-.13c-.28-.19-.44-.23-.64-.14a1.88,1.88,0,0,0-.66.76,9.59,9.59,0,0,0-.48,1.13A25,25,0,0,0,56.46,83Z"/><path class="cls-8" d="M137.56,83a22.59,22.59,0,0,0-.66-2.48,9.56,9.56,0,0,0-.47-1.13,1.88,1.88,0,0,0-.66-.76c-.2-.09-.37-.05-.65.14a1.43,1.43,0,0,0-.16.13,2,2,0,0,0-.21.22l-.29.41a10.18,10.18,0,0,0-.88,2.22,24.17,24.17,0,0,0-.61,2.44c-.19.82-.35,1.65-.49,2.49-.3,1.67-.57,3.36-.81,5l-.21-.45a5.17,5.17,0,0,1,.71.69,3.88,3.88,0,0,1,.55.85,1.9,1.9,0,0,1,.16,1.09,1.72,1.72,0,0,1-.55.92,4,4,0,0,1-1.69.82,10.64,10.64,0,0,1-1.76.31,15.53,15.53,0,0,0,1.65-.62,4,4,0,0,0,1.37-.92,1,1,0,0,0,.08-1.24,2.84,2.84,0,0,0-.48-.58,4,4,0,0,0-.62-.49l-.22-.14v-.31a45,45,0,0,1,.41-5.19,29.74,29.74,0,0,1,1.14-5.14,10.45,10.45,0,0,1,1.18-2.49,4.3,4.3,0,0,1,.51-.6,2.19,2.19,0,0,1,.27-.22,2.6,2.6,0,0,1,.35-.23,1.93,1.93,0,0,1,.85-.26,1.48,1.48,0,0,1,.94.26,2.67,2.67,0,0,1,.86,1.28,6.31,6.31,0,0,1,.31,1.32A11.52,11.52,0,0,1,137.56,83Z"/><path class="cls-8" d="M99.25,83.74c.21.41.39.83.57,1.25s.39.81.55,1.21.4.78.57,1.17l.61,1.14.65,1.1c.25.34.47.69.7,1l.76,1c.28.31.56.61.83.93l.76.91-.91.58c-.54.35-1.11.66-1.67,1s-1.14.62-1.71.93a27.36,27.36,0,0,1-3.63,1.56,29.27,29.27,0,0,1,2.86-2.72c.51-.41,1-.83,1.53-1.21s1-.79,1.56-1.15l-.14,1.48c-.34-.34-.66-.69-1-1l-.85-1.15c-.24-.42-.48-.82-.7-1.24L100,89.2l-.42-1.34c-.11-.45-.18-.91-.27-1.36s-.09-.93-.14-1.38S99.22,84.2,99.25,83.74Z"/><path class="cls-9" d="M87.5,103.31s11.53,11.85,22.18.37"/><path class="cls-10" d="M100.53,75.3s0-.11.07-.31a7.14,7.14,0,0,1,.29-.84,10.39,10.39,0,0,1,1.65-2.76,11.37,11.37,0,0,1,1.54-1.58c.3-.27.65-.47,1-.72l.54-.36.58-.29a12.54,12.54,0,0,1,1.24-.54c.44-.13.89-.26,1.35-.37a6.66,6.66,0,0,1,1.41-.2,9.77,9.77,0,0,1,1.43,0l1.4.16c.24,0,.47,0,.7.1l.66.19a11.94,11.94,0,0,1,2.47,1,18,18,0,0,1,2.09,1.22q.9.7,1.65,1.35a9.21,9.21,0,0,1,1.24,1.28c.35.4.63.77.86,1.06.47.6.7,1,.7,1s-.43-.14-1.12-.44c-.34-.14-.76-.31-1.22-.54a14.35,14.35,0,0,0-1.54-.68c-.57-.22-1.17-.47-1.8-.74s-1.31-.42-2-.67a14.67,14.67,0,0,0-2.1-.53l-.53-.13-.54,0-1.07-.1a7.48,7.48,0,0,0-1.06,0,4.56,4.56,0,0,0-1,.07c-.34.07-.69.12-1,.17s-.66.2-1,.28l-.49.14-.46.19c-.31.14-.62.24-.91.39a18,18,0,0,0-1.64.9c-.52.29-.95.63-1.37.9s-.77.55-1,.79-.52.42-.67.55Z"/><path class="cls-10" d="M70.06,75.3a1.77,1.77,0,0,1,.07-.31,7.14,7.14,0,0,1,.29-.84A9.4,9.4,0,0,1,71,72.89a10.64,10.64,0,0,1,1-1.5,11.37,11.37,0,0,1,1.54-1.58c.3-.27.66-.47,1-.72l.53-.36.59-.29A11.59,11.59,0,0,1,77,67.9c.44-.13.89-.26,1.35-.37a6.57,6.57,0,0,1,1.4-.2,9.82,9.82,0,0,1,1.43,0l1.41.16c.23,0,.46,0,.69.1l.66.19a11.73,11.73,0,0,1,2.47,1,17.17,17.17,0,0,1,2.09,1.22c.6.47,1.16.92,1.65,1.35a8.19,8.19,0,0,1,1.24,1.28c.35.4.63.77.87,1.06.46.6.69,1,.69,1s-.43-.14-1.12-.44c-.34-.14-.76-.31-1.21-.54A16.37,16.37,0,0,0,89,72.9c-.57-.22-1.18-.47-1.8-.74s-1.32-.42-2-.67a15,15,0,0,0-2.1-.53l-.54-.13-.53,0L81,70.69a7.53,7.53,0,0,0-1.06,0,4.6,4.6,0,0,0-1,.07c-.34.07-.68.12-1,.17s-.65.2-1,.28l-.49.14-.47.19c-.3.14-.62.24-.91.39a17.8,17.8,0,0,0-1.63.9c-.52.29-1,.63-1.38.9s-.76.55-1,.79-.52.42-.66.55Z"/><path class="cls-10" d="M84.17,83.4c0,2.67-.74,4.83-1.65,4.83s-1.65-2.16-1.65-4.83.74-4.84,1.65-4.84S84.17,80.73,84.17,83.4Z"/><path class="cls-10" d="M113,82.74c0,2.67-.74,4.84-1.65,4.84s-1.65-2.17-1.65-4.84.74-4.83,1.65-4.83S113,80.07,113,82.74Z"/><path class="cls-3" d="M141.91,143.61c-4-1.89-8.77-4.49-14.4-5.37,0,0-5.52,17.06-30.49,17.2-25-.14-30.49-17.2-30.49-17.2-6.21.86-11.41,3.53-15.74,5.55,2.14,7.2,6.05,24.76-.84,50.13l46.78.35h.58l45.39-.35C135.75,168.34,139.78,150.67,141.91,143.61Z"/><g class="cls-11"><path class="cls-10" d="M53,210.83a4,4,0,1,1-4,4A4,4,0,0,1,53,210.83Z"/><path class="cls-10" d="M53,193.28a4,4,0,1,1-4,4A4,4,0,0,1,53,193.28Z"/><path class="cls-10" d="M53,175.73a4,4,0,1,1-4,4A4,4,0,0,1,53,175.73Z"/><path class="cls-10" d="M53,158.18a4,4,0,1,1-4,4A4,4,0,0,1,53,158.18Z"/><path class="cls-10" d="M53,140.63a4,4,0,1,1-4,4A4,4,0,0,1,53,140.63Z"/><circle class="cls-10" cx="65.15" cy="225.4" r="4.02"/><circle class="cls-10" cx="65.15" cy="207.85" r="4.02"/><path class="cls-10" d="M65.15,186.29a4,4,0,1,1-4,4A4,4,0,0,1,65.15,186.29Z"/><circle class="cls-10" cx="65.15" cy="172.76" r="4.02"/><path class="cls-10" d="M65.15,151.19a4,4,0,1,1-4,4A4,4,0,0,1,65.15,151.19Z"/><path class="cls-10" d="M77.33,210.83a4,4,0,1,1-4,4A4,4,0,0,1,77.33,210.83Z"/><path class="cls-10" d="M77.33,193.28a4,4,0,1,1-4,4A4,4,0,0,1,77.33,193.28Z"/><path class="cls-10" d="M77.33,175.73a4,4,0,1,1-4,4A4,4,0,0,1,77.33,175.73Z"/><path class="cls-10" d="M77.33,158.18a4,4,0,1,1-4,4A4,4,0,0,1,77.33,158.18Z"/><path class="cls-10" d="M77.33,140.63a4,4,0,1,1-4,4A4,4,0,0,1,77.33,140.63Z"/><path class="cls-10" d="M89.5,221.39a4,4,0,1,1-4,4A4,4,0,0,1,89.5,221.39Z"/><path class="cls-10" d="M89.5,203.84a4,4,0,1,1-4,4A4,4,0,0,1,89.5,203.84Z"/><path class="cls-10" d="M89.5,186.29a4,4,0,1,1-4,4A4,4,0,0,1,89.5,186.29Z"/><path class="cls-10" d="M89.5,168.74a4,4,0,1,1-4,4A4,4,0,0,1,89.5,168.74Z"/><path class="cls-10" d="M89.5,151.19a4,4,0,1,1-4,4A4,4,0,0,1,89.5,151.19Z"/><path class="cls-10" d="M102,210.83a4,4,0,1,1-4,4A4,4,0,0,1,102,210.83Z"/><path class="cls-10" d="M102,193.28a4,4,0,1,1-4,4A4,4,0,0,1,102,193.28Z"/><path class="cls-10" d="M102,175.73a4,4,0,1,1-4,4A4,4,0,0,1,102,175.73Z"/><path class="cls-10" d="M102,158.18a4,4,0,1,1-4,4A4,4,0,0,1,102,158.18Z"/><path class="cls-10" d="M102,140.63a4,4,0,1,1-4,4A4,4,0,0,1,102,140.63Z"/><path class="cls-10" d="M114.19,221.39a4,4,0,1,1-4,4A4,4,0,0,1,114.19,221.39Z"/><path class="cls-10" d="M114.19,203.84a4,4,0,1,1-4,4A4,4,0,0,1,114.19,203.84Z"/><path class="cls-10" d="M114.19,186.29a4,4,0,1,1-4,4A4,4,0,0,1,114.19,186.29Z"/><path class="cls-10" d="M114.19,168.74a4,4,0,1,1-4,4A4,4,0,0,1,114.19,168.74Z"/><path class="cls-10" d="M114.19,151.19a4,4,0,1,1-4,4A4,4,0,0,1,114.19,151.19Z"/><path class="cls-10" d="M126.36,210.83a4,4,0,1,1-4,4A4,4,0,0,1,126.36,210.83Z"/><path class="cls-10" d="M126.36,193.28a4,4,0,1,1-4,4A4,4,0,0,1,126.36,193.28Z"/><path class="cls-10" d="M126.36,175.73a4,4,0,1,1-4,4A4,4,0,0,1,126.36,175.73Z"/><path class="cls-10" d="M126.36,158.18a4,4,0,1,1-4,4A4,4,0,0,1,126.36,158.18Z"/><circle class="cls-10" cx="126.36" cy="144.65" r="4.02"/><path class="cls-10" d="M138.54,221.39a4,4,0,1,1-4,4A4,4,0,0,1,138.54,221.39Z"/><path class="cls-10" d="M138.54,203.84a4,4,0,1,1-4,4A4,4,0,0,1,138.54,203.84Z"/><path class="cls-10" d="M138.54,186.29a4,4,0,1,1-4,4A4,4,0,0,1,138.54,186.29Z"/><path class="cls-10" d="M138.54,168.74a4,4,0,1,1-4,4A4,4,0,0,1,138.54,168.74Z"/><path class="cls-10" d="M138.54,151.19a4,4,0,1,1-4,4A4,4,0,0,1,138.54,151.19Z"/></g></g></g></g></svg>